<?xml version="1.0" encoding="utf-8"?>
<!-- Generator: Adobe Illustrator 16.0.0, SVG Export Plug-In . SVG Version: 6.00 Build 0)  -->
<!DOCTYPE svg PUBLIC "-//W3C//DTD SVG 1.1//EN" "http://www.w3.org/Graphics/SVG/1.1/DTD/svg11.dtd">
<svg version="1.1" id="Layer_1" xmlns="http://www.w3.org/2000/svg" xmlns:xlink="http://www.w3.org/1999/xlink" x="0px" y="0px"
	 width="84px" height="84px" viewBox="0 0 84 84" enable-background="new 0 0 84 84" xml:space="preserve">
<path fill="#FFFFFF" d="M42,83.289c-14.732,0-28.904-5.658-39.905-15.928l-0.857-0.801l-0.08-1.172C1.053,63.855,1,62.32,1,60.828
	c0-13.27,3.881-25.964,11.223-36.712C19.426,13.572,29.364,5.712,40.961,1.387L42,1l1.039,0.387
	c11.598,4.325,21.535,12.185,28.738,22.729C79.119,34.864,83,47.559,83,60.828c0,1.492-0.053,3.027-0.157,4.561l-0.08,1.172
	l-0.856,0.801C70.904,77.631,56.732,83.289,42,83.289z"/>
<path fill="#89C7D1" d="M42,75.855c-12.266,0-24.103-4.512-33.523-12.744c-0.03-0.77-0.045-1.531-0.045-2.283
	c0-11.768,3.433-23.012,9.928-32.52C24.366,19.516,32.514,12.854,42,8.96c9.484,3.893,17.633,10.555,23.641,19.348
	c6.494,9.508,9.928,20.752,9.928,32.52c0,0.75-0.016,1.514-0.045,2.285C66.104,71.344,54.266,75.855,42,75.855z"/>
<path fill="#7A9570" d="M39.407,68.906c-2.035,0-3.859-1.221-4.602-3.127c-0.174-0.402-4.265-9.664-15.458-15.26
	c-2.447-1.225-3.439-4.199-2.216-6.648c1.224-2.447,4.2-3.439,6.647-2.215c6.63,3.315,11.323,7.624,14.508,11.43
	c4.727-10.758,14.432-28.842,31.225-44.108c2.023-1.841,5.158-1.692,6.998,0.333c1.841,2.025,1.691,5.159-0.333,6.999
	c-23.163,21.058-31.957,48.8-32.043,49.077c-0.624,2.016-2.446,3.445-4.555,3.516C39.521,68.904,39.464,68.906,39.407,68.906z"/>
</svg>
