<?xml version="1.0" encoding="utf-8"?>
<!-- Generator: Adobe Illustrator 16.0.0, SVG Export Plug-In . SVG Version: 6.00 Build 0)  -->
<!DOCTYPE svg PUBLIC "-//W3C//DTD SVG 1.1//EN" "http://www.w3.org/Graphics/SVG/1.1/DTD/svg11.dtd">
<svg version="1.1" id="Layer_1" xmlns="http://www.w3.org/2000/svg" xmlns:xlink="http://www.w3.org/1999/xlink" x="0px" y="0px"
	 width="84px" height="84px" viewBox="0 0 84 84" enable-background="new 0 0 84 84" xml:space="preserve">
<g>
	<g>
		<path fill-rule="evenodd" clip-rule="evenodd" fill="#FFFFFF" d="M56.604,76.878c-0.153-0.022-0.308-0.055-0.462-0.067
			c-0.865-0.074-1.716-0.233-2.562-0.424c-1.467-0.329-2.907-0.761-4.356-1.153c-1.132-0.308-2.269-0.593-3.422-0.807
			c-0.74-0.137-1.485-0.239-2.234-0.308c-0.812-0.076-1.624-0.096-2.438-0.059c-0.54,0.024-1.079,0.085-1.615,0.161
			c-1.851,0.26-3.645,0.771-5.443,1.261c-1.247,0.34-2.493,0.681-3.761,0.938c-0.661,0.134-1.323,0.259-1.995,0.313
			c-0.576,0.048-1.153,0.108-1.729,0.104c-1.56-0.011-3.061-0.308-4.463-1.022c-0.893-0.453-1.692-1.038-2.419-1.727
			c-0.976-0.925-1.768-1.986-2.358-3.196c-0.503-1.029-0.833-2.113-1.005-3.247c-0.115-0.76-0.159-1.521-0.132-2.287
			c0.06-1.665,0.417-3.27,1.018-4.82c0.689-1.783,1.656-3.409,2.842-4.905c0.562-0.71,1.162-1.387,1.814-2.013
			c0.495-0.476,1.012-0.929,1.521-1.389c0.906-0.817,1.742-1.7,2.531-2.629c1.207-1.421,2.295-2.932,3.367-4.454
			c0.925-1.309,1.834-2.629,2.816-3.897c0.737-0.954,1.515-1.875,2.383-2.715c1.082-1.047,2.276-1.933,3.679-2.511
			c0.811-0.334,1.653-0.545,2.526-0.642c0.806-0.089,1.61-0.063,2.416,0.002c0.927,0.074,1.837,0.234,2.729,0.496
			c1.64,0.482,3.079,1.318,4.339,2.471c0.92,0.842,1.707,1.8,2.436,2.808c0.815,1.128,1.555,2.308,2.306,3.48
			c0.845,1.318,1.702,2.629,2.651,3.877c1.151,1.518,2.436,2.907,3.869,4.163c1.798,1.575,3.348,3.364,4.572,5.423
			c0.946,1.591,1.647,3.28,2.024,5.097c0.123,0.596,0.204,1.197,0.248,1.806c0.054,0.754,0.039,1.505-0.052,2.255
			c-0.195,1.62-0.711,3.13-1.595,4.506c-1.049,1.634-2.46,2.874-4.149,3.81c-0.95,0.525-1.956,0.9-3.021,1.104
			c-0.378,0.073-0.762,0.11-1.144,0.164c-0.059,0.009-0.117,0.022-0.176,0.033C57.643,76.878,57.124,76.878,56.604,76.878z"/>
		<path fill-rule="evenodd" clip-rule="evenodd" fill="#FFFFFF" d="M56.533,8.765c0.154,0.023,0.308,0.046,0.463,0.068
			c1.2,0.172,2.274,0.642,3.235,1.375c0.979,0.747,1.731,1.686,2.323,2.759c0.611,1.112,1.01,2.3,1.254,3.543
			c0.241,1.232,0.311,2.475,0.236,3.724c-0.13,2.207-0.673,4.312-1.631,6.305c-0.558,1.157-1.246,2.229-2.085,3.203
			c-0.945,1.097-2.037,2.016-3.326,2.686c-0.846,0.438-1.735,0.744-2.684,0.863c-2.307,0.29-4.277-0.42-5.932-2.027
			c-1.074-1.044-1.798-2.315-2.307-3.714c-0.354-0.978-0.577-1.987-0.697-3.02c-0.094-0.798-0.128-1.599-0.087-2.4
			c0.147-2.939,0.964-5.673,2.547-8.165c0.886-1.392,1.976-2.598,3.326-3.555c0.987-0.701,2.06-1.219,3.248-1.476
			c0.287-0.062,0.581-0.093,0.873-0.138c0.053-0.008,0.104-0.021,0.157-0.033C55.81,8.765,56.172,8.765,56.533,8.765z"/>
		<path fill-rule="evenodd" clip-rule="evenodd" fill="#FFFFFF" d="M80.045,36.509c-0.01,0.058-0.028,0.116-0.03,0.175
			c-0.021,0.592-0.132,1.172-0.27,1.746c-0.563,2.349-1.648,4.426-3.274,6.213c-1.162,1.278-2.521,2.286-4.129,2.943
			c-0.722,0.296-1.468,0.507-2.242,0.593c-1.993,0.225-3.792-0.239-5.333-1.558c-0.873-0.746-1.502-1.671-1.949-2.725
			c-0.362-0.854-0.578-1.745-0.684-2.667c-0.07-0.624-0.09-1.25-0.055-1.876c0.104-1.816,0.579-3.535,1.379-5.165
			c0.612-1.247,1.384-2.385,2.34-3.396c1.259-1.333,2.722-2.367,4.463-2.979c0.655-0.23,1.329-0.388,2.021-0.446
			c1.876-0.158,3.567,0.312,5.028,1.526c0.723,0.6,1.285,1.333,1.722,2.163c0.528,1.004,0.827,2.077,0.969,3.197
			c0.02,0.147,0.03,0.296,0.044,0.445C80.045,35.303,80.045,35.906,80.045,36.509z"/>
		<path fill-rule="evenodd" clip-rule="evenodd" fill="#FFFFFF" d="M5.783,35.171c0.035-0.255,0.074-0.51,0.105-0.766
			c0.181-1.448,0.61-2.811,1.416-4.038c0.946-1.439,2.229-2.429,3.908-2.877c0.765-0.205,1.543-0.253,2.328-0.178
			c1.666,0.16,3.129,0.829,4.454,1.822c1.426,1.068,2.533,2.414,3.395,3.966c0.778,1.403,1.302,2.896,1.565,4.479
			c0.103,0.612,0.154,1.229,0.167,1.852c0.025,1.282-0.14,2.534-0.553,3.75c-0.395,1.163-0.986,2.21-1.853,3.089
			c-0.909,0.924-1.998,1.535-3.269,1.811c-1.293,0.279-2.563,0.157-3.809-0.261c-1.311-0.44-2.455-1.162-3.478-2.083
			c-1.146-1.031-2.057-2.244-2.771-3.606c-0.694-1.322-1.169-2.719-1.414-4.192c-0.067-0.403-0.102-0.812-0.153-1.218
			c-0.009-0.071-0.026-0.14-0.04-0.21C5.783,36.063,5.783,35.617,5.783,35.171z"/>
		<path fill-rule="evenodd" clip-rule="evenodd" fill="#FFFFFF" d="M21.375,19.67c0.004-1.707,0.268-3.369,0.874-4.97
			c0.472-1.246,1.125-2.384,2.037-3.363c0.878-0.943,1.911-1.647,3.148-2.04c0.788-0.25,1.597-0.354,2.422-0.303
			c1.212,0.075,2.333,0.448,3.38,1.052c1.246,0.718,2.274,1.679,3.148,2.811c1.231,1.596,2.056,3.39,2.565,5.334
			c0.247,0.952,0.415,1.917,0.479,2.9c0.024,0.39,0.056,0.782,0.053,1.172c-0.018,2.153-0.408,4.225-1.394,6.16
			c-0.561,1.102-1.286,2.079-2.234,2.88c-0.971,0.822-2.078,1.367-3.337,1.578c-1.359,0.228-2.673,0.042-3.939-0.491
			c-1.079-0.454-2.027-1.106-2.871-1.912c-1.602-1.529-2.693-3.381-3.424-5.458c-0.409-1.163-0.677-2.359-0.81-3.585
			C21.41,20.85,21.369,20.262,21.375,19.67z"/>
	</g>
</g>
</svg>
