<?xml version="1.0" encoding="utf-8"?>
<!-- Generator: Adobe Illustrator 16.0.0, SVG Export Plug-In . SVG Version: 6.00 Build 0)  -->
<!DOCTYPE svg PUBLIC "-//W3C//DTD SVG 1.1//EN" "http://www.w3.org/Graphics/SVG/1.1/DTD/svg11.dtd">
<svg version="1.1" id="Layer_1" xmlns="http://www.w3.org/2000/svg" xmlns:xlink="http://www.w3.org/1999/xlink" x="0px" y="0px"
	 width="84px" height="84px" viewBox="0 0 84 84" enable-background="new 0 0 84 84" xml:space="preserve">
<path fill="#FFFFFF" d="M63.333,30.102h-40c-2.728,0-4.938-2.211-4.938-4.938s2.211-4.938,4.938-4.938h40
	c2.728,0,4.938,2.211,4.938,4.938S66.061,30.102,63.333,30.102z"/>
<path fill="#FFFFFF" d="M63.333,47.879h-40c-2.728,0-4.938-2.211-4.938-4.938c0-2.728,2.211-4.938,4.938-4.938h40
	c2.728,0,4.938,2.211,4.938,4.938C68.271,45.668,66.061,47.879,63.333,47.879z"/>
<path fill="#FFFFFF" d="M63.333,65.657h-40c-2.728,0-4.938-2.211-4.938-4.938s2.211-4.938,4.938-4.938h40
	c2.728,0,4.938,2.211,4.938,4.938S66.061,65.657,63.333,65.657z"/>
</svg>
