<?xml version="1.0" encoding="utf-8"?>
<!-- Generator: Adobe Illustrator 16.0.0, SVG Export Plug-In . SVG Version: 6.00 Build 0)  -->
<!DOCTYPE svg PUBLIC "-//W3C//DTD SVG 1.1//EN" "http://www.w3.org/Graphics/SVG/1.1/DTD/svg11.dtd">
<svg version="1.1" id="Layer_1" xmlns="http://www.w3.org/2000/svg" xmlns:xlink="http://www.w3.org/1999/xlink" x="0px" y="0px"
	 width="84px" height="84px" viewBox="0 0 84 84" enable-background="new 0 0 84 84" xml:space="preserve">
<path fill="#FFFFFF" d="M10.488,69.592c-2.884,0-4.582-2.265-3.77-5.034l9.264-31.606c0.812-2.769,2.14-2.769,2.951,0L28.2,64.558
	c0.812,2.77-0.886,5.034-3.771,5.034H10.488z"/>
<rect x="15.034" y="67.621" fill="#FFFFFF" width="4.85" height="8.79"/>
<path fill="#FFFFFF" d="M56.825,68.268c-2.886,0-4.583-2.266-3.771-5.034l11.638-39.702c0.812-2.769,2.14-2.769,2.95,0
	l11.639,39.702c0.812,2.769-0.886,5.034-3.77,5.034H56.825z"/>
<rect x="63.271" y="65.915" fill="#FFFFFF" width="5.792" height="10.496"/>
<path fill="#FFFFFF" d="M27.956,62.495c-2.885,0-4.582-2.266-3.771-5.034L38.197,9.664c0.811-2.768,2.139-2.768,2.95,0l14.01,47.797
	c0.812,2.769-0.885,5.034-3.771,5.034H27.956z"/>
<rect x="36.305" y="59.76" fill="#FFFFFF" width="6.734" height="12.204"/>
</svg>
